<svg id="visual" viewBox="0 0 900 150" width="900" height="150" xmlns="http://www.w3.org/2000/svg" xmlns:xlink="http://www.w3.org/1999/xlink" version="1.1"><path d="M0 20L30 31.7C60 43.3 120 66.7 180 77C240 87.3 300 84.7 360 72.2C420 59.7 480 37.3 540 25.5C600 13.7 660 12.3 720 17.7C780 23 840 35 870 41L900 47L900 151L870 151C840 151 780 151 720 151C660 151 600 151 540 151C480 151 420 151 360 151C300 151 240 151 180 151C120 151 60 151 30 151L0 151Z" fill="#ff8e00"></path><path d="M0 30L30 32.7C60 35.3 120 40.7 180 51C240 61.3 300 76.7 360 74.8C420 73 480 54 540 50.5C600 47 660 59 720 62.3C780 65.7 840 60.3 870 57.7L900 55L900 151L870 151C840 151 780 151 720 151C660 151 600 151 540 151C480 151 420 151 360 151C300 151 240 151 180 151C120 151 60 151 30 151L0 151Z" fill="#ec4d51"></path><path d="M0 106L30 101.8C60 97.7 120 89.3 180 87.5C240 85.7 300 90.3 360 96.7C420 103 480 111 540 105C600 99 660 79 720 75.5C780 72 840 85 870 91.5L900 98L900 151L870 151C840 151 780 151 720 151C660 151 600 151 540 151C480 151 420 151 360 151C300 151 240 151 180 151C120 151 60 151 30 151L0 151Z" fill="#ac3371"></path><path d="M0 102L30 107C60 112 120 122 180 124C240 126 300 120 360 119.2C420 118.3 480 122.7 540 122.3C600 122 660 117 720 109.3C780 101.7 840 91.3 870 86.2L900 81L900 151L870 151C840 151 780 151 720 151C660 151 600 151 540 151C480 151 420 151 360 151C300 151 240 151 180 151C120 151 60 151 30 151L0 151Z" fill="#57316d"></path><path d="M0 143L30 136.2C60 129.3 120 115.7 180 114.8C240 114 300 126 360 126.8C420 127.7 480 117.3 540 116.2C600 115 660 123 720 122.7C780 122.3 840 113.7 870 109.3L900 105L900 151L870 151C840 151 780 151 720 151C660 151 600 151 540 151C480 151 420 151 360 151C300 151 240 151 180 151C120 151 60 151 30 151L0 151Z" fill="#002347"></path></svg>
