<svg id="visual" viewBox="0 0 900 150" width="900" height="150" xmlns="http://www.w3.org/2000/svg" xmlns:xlink="http://www.w3.org/1999/xlink" version="1.1"><path d="M0 128L30 116.3C60 104.7 120 81.3 180 71C240 60.7 300 63.3 360 75.8C420 88.3 480 110.7 540 122.5C600 134.3 660 135.7 720 130.3C780 125 840 113 870 107L900 101L900 0L870 0C840 0 780 0 720 0C660 0 600 0 540 0C480 0 420 0 360 0C300 0 240 0 180 0C120 0 60 0 30 0L0 0Z" fill="#ff8e00"></path><path d="M0 118L30 115.3C60 112.7 120 107.3 180 97C240 86.7 300 71.3 360 73.2C420 75 480 94 540 97.5C600 101 660 89 720 85.7C780 82.3 840 87.7 870 90.3L900 93L900 0L870 0C840 0 780 0 720 0C660 0 600 0 540 0C480 0 420 0 360 0C300 0 240 0 180 0C120 0 60 0 30 0L0 0Z" fill="#ec4d51"></path><path d="M0 42L30 46.2C60 50.3 120 58.7 180 60.5C240 62.3 300 57.7 360 51.3C420 45 480 37 540 43C600 49 660 69 720 72.5C780 76 840 63 870 56.5L900 50L900 0L870 0C840 0 780 0 720 0C660 0 600 0 540 0C480 0 420 0 360 0C300 0 240 0 180 0C120 0 60 0 30 0L0 0Z" fill="#ac3371"></path><path d="M0 46L30 41C60 36 120 26 180 24C240 22 300 28 360 28.8C420 29.7 480 25.3 540 25.7C600 26 660 31 720 38.7C780 46.3 840 56.7 870 61.8L900 67L900 0L870 0C840 0 780 0 720 0C660 0 600 0 540 0C480 0 420 0 360 0C300 0 240 0 180 0C120 0 60 0 30 0L0 0Z" fill="#57316d"></path><path d="M0 5L30 11.8C60 18.7 120 32.3 180 33.2C240 34 300 22 360 21.2C420 20.3 480 30.7 540 31.8C600 33 660 25 720 25.3C780 25.7 840 34.3 870 38.7L900 43L900 0L870 0C840 0 780 0 720 0C660 0 600 0 540 0C480 0 420 0 360 0C300 0 240 0 180 0C120 0 60 0 30 0L0 0Z" fill="#002347"></path></svg>
